<?xml version="1.0" encoding="UTF-8"?>
<svg xmlns="http://www.w3.org/2000/svg" xmlns:xlink="http://www.w3.org/1999/xlink" viewBox="0 0 25 25" width="25px" height="25px">
<g id="surface236019937">
<path style=" stroke:none;fill-rule:nonzero;fill:rgb(100%,100%,100%);fill-opacity:1;" d="M 12.996094 24 C 6.65625 24 1.496094 18.839844 1.496094 12.5 C 1.496094 6.160156 6.65625 1 12.996094 1 C 15.871094 1 18.621094 2.066406 20.742188 3.996094 L 21.128906 4.351562 L 17.335938 8.144531 L 16.984375 7.84375 C 15.871094 6.890625 14.457031 6.363281 12.996094 6.363281 C 9.613281 6.363281 6.859375 9.117188 6.859375 12.5 C 6.859375 15.882812 9.613281 18.636719 12.996094 18.636719 C 15.4375 18.636719 17.363281 17.390625 18.273438 15.265625 L 12.496094 15.265625 L 12.496094 10.089844 L 23.773438 10.105469 L 23.855469 10.5 C 24.445312 13.292969 23.972656 17.394531 21.589844 20.332031 C 19.617188 22.765625 16.726562 24 12.996094 24 Z M 12.996094 24 "/>
</g>
</svg>
